<?xml version="1.0" encoding="UTF-8" standalone="no"?>
<svg
   id="livetype"
   width="18.423367"
   height="22.644772"
   viewBox="0 0 18.423367 22.644772"
   version="1.1"
   xmlns="http://www.w3.org/2000/svg"
   xmlns:svg="http://www.w3.org/2000/svg">
  <defs
     id="defs24" />
  <title
     id="title1">Download_on_the_App_Store_Badge_US-UK_RGB_wht_092917</title>
  <g
     id="g24"
     transform="translate(-9.6090527,-7.84692)">
    <g
       id="g11">
      <g
         id="_Group_"
         data-name="&lt;Group&gt;">
        <g
           id="_Group_2"
           data-name="&lt;Group&gt;">
          <g
             id="_Group_3"
             data-name="&lt;Group&gt;">
            <path
               id="_Path_"
               data-name="&lt;Path&gt;"
               d="m 24.99671,19.88935 a 5.14625,5.14625 0 0 1 2.45058,-4.31771 5.26776,5.26776 0 0 0 -4.15039,-2.24376 c -1.74624,-0.1833 -3.43913,1.04492 -4.329,1.04492 -0.90707,0 -2.27713,-1.02672 -3.75247,-0.99637 a 5.52735,5.52735 0 0 0 -4.65137,2.8367 c -2.01111,3.482 -0.511,8.59939 1.41551,11.414 0.96388,1.37823 2.09037,2.91774 3.56438,2.86315 1.4424,-0.05983 1.98111,-0.91977 3.7222,-0.91977 1.72494,0 2.23035,0.91977 3.73427,0.88506 1.54777,-0.02512 2.52292,-1.38435 3.453,-2.77563 a 11.39931,11.39931 0 0 0 1.579,-3.21589 4.97284,4.97284 0 0 1 -3.03571,-4.5747 z" />
            <path
               id="_Path_2"
               data-name="&lt;Path&gt;"
               d="m 22.15611,11.47681 a 5.06687,5.06687 0 0 0 1.159,-3.62989 5.15524,5.15524 0 0 0 -3.33555,1.72582 4.82131,4.82131 0 0 0 -1.18934,3.4955 4.26259,4.26259 0 0 0 3.36589,-1.59143 z" />
          </g>
        </g>
      </g>
    </g>
  </g>
</svg>
