<?xml version="1.0" encoding="UTF-8" standalone="no"?>
<svg
   width="24"
   height="24"
   viewBox="0 0 24 24"
   fill="none"
   version="1.1"
   id="svg19"
   sodipodi:docname="rustore-logo-color-light.svg"
   xmlns:inkscape="http://www.inkscape.org/namespaces/inkscape"
   xmlns:sodipodi="http://sodipodi.sourceforge.net/DTD/sodipodi-0.dtd"
   xmlns="http://www.w3.org/2000/svg"
   xmlns:svg="http://www.w3.org/2000/svg">
  <sodipodi:namedview
     id="namedview19"
     pagecolor="#ffffff"
     bordercolor="#000000"
     borderopacity="0.25"
     inkscape:showpageshadow="2"
     inkscape:pageopacity="0.0"
     inkscape:pagecheckerboard="0"
     inkscape:deskcolor="#d1d1d1" />
  <g
     clip-path="url(#clip0_9015_7790)"
     id="g19"
     transform="translate(-8,-8)">
    <path
       d="M 9.68808,30.3141 C 11.3762,32 14.0898,32 19.5209,32 h 0.9582 c 5.4311,0 8.1447,0 9.8328,-1.6859 C 32,28.6282 32,25.912 32,20.4796 V 19.5204 C 32,14.088 32,11.3718 30.3119,9.68592 28.6238,8 25.9064,8 20.4791,8 H 19.5209 C 14.0898,8 11.3724,8 9.68808,9.68592 8,11.3756 8,14.0918 8,19.5204 v 0.9592 c 0,5.4324 0,8.1486 1.68808,9.8345 z"
       fill="#0077ff"
       id="path8" />
    <path
       fill-rule="evenodd"
       clip-rule="evenodd"
       d="M 26.5283,23.9528 24.9076,23.5482 C 24.713,23.492 24.5745,23.3159 24.567,23.1136 l -0.2021,-5.9682 c -0.0599,-0.7905 -0.6438,-1.4199 -1.2577,-1.6035 -0.0337,-0.0112 -0.0711,0 -0.0898,0.0337 -0.0225,0.03 -0.0112,0.0712 0.015,0.0937 0.1497,0.1161 0.5689,0.4983 0.5689,1.1577 v 7.8039 c 0,0.753 -0.7149,1.3075 -1.4485,1.1239 l -1.647,-0.4121 C 20.3224,25.279 20.1952,25.1104 20.1914,24.9119 l -0.2021,-5.9682 c -0.0599,-0.7905 -0.6438,-1.4199 -1.2576,-1.6035 -0.0337,-0.0112 -0.0711,0 -0.0899,0.0337 -0.0224,0.03 -0.0112,0.0712 0.015,0.0937 0.1497,0.1161 0.5689,0.4983 0.5689,1.1577 v 6.5039 1.3 c 0,0.753 -0.7111,1.3075 -1.4447,1.1239 l -4.6488,-1.1614 c -0.6476,-0.1611 -1.1005,-0.7418 -1.1005,-1.4049 v -7.8152 c 0,-0.753 0.7112,-1.3075 1.4448,-1.1239 l 2.9308,0.7306 v -1.4087 c 0,-0.7531 0.7111,-1.3076 1.4448,-1.124 l 2.9307,0.7306 v -1.4087 c 0,-0.753 0.7112,-1.3075 1.4448,-1.1239 l 4.6488,1.1614 c 0.6475,0.1611 1.1004,0.7418 1.1004,1.4049 v 7.8152 c 0,0.753 -0.7111,1.3075 -1.4448,1.1239"
       fill="#ffffff"
       id="path9" />
  </g>
  <defs
     id="defs19">
    <clipPath
       id="clip0_9015_7790">
      <rect
         width="111"
         height="40"
         fill="#ffffff"
         id="rect19"
         x="0"
         y="0" />
    </clipPath>
  </defs>
</svg>
